<svg xmlns="http://www.w3.org/2000/svg" width="128" height="128" viewBox="0 0 128 128" fill="none">
  <g clip-path="url(#clip0_19_2)">
    <rect width="128" height="128" rx="30" fill="#F6F5FA"/>
    <line x1="65" y1="4" x2="65" y2="124" stroke="black" stroke-width="2"/>
    <line x1="4" y1="63" x2="124" y2="63" stroke="black" stroke-width="2"/>
    <g filter="url(#filter0_d_19_2)">
      <path fill-rule="evenodd" clip-rule="evenodd" d="M-18 48.9156V39.5766L-17.1983 39.9882L-17.1217 40.0275L-17.0469 40.0701L-16.0219 40.6533L-15.9525 40.6928L-15.8848 40.735L-14.8598 41.3736L-14.7973 41.4126L-14.7362 41.4538L-13.7112 42.1462L-13.6551 42.1841L-13.6002 42.2239L-12.5752 42.968L-12.525 43.0045L-12.4759 43.0425L-11.4509 43.8363L-11.406 43.8711L-11.3622 43.907L-10.3372 44.7484L-10.2973 44.7812L-10.2583 44.815L-9.23325 45.7016L-9.19785 45.7322L-9.16316 45.7637L-8.13816 46.6931L-8.10683 46.7215L-8.07611 46.7506L-7.05112 47.7203L-7.02349 47.7465L-6.99637 47.7731L-5.97137 48.7805L-5.94711 48.8043L-5.92326 48.8286L-4.89825 49.8708L-4.87707 49.8923L-4.8562 49.9142L-3.8312 50.9884L-3.81281 51.0076L-3.79468 51.0272L-2.76968 52.1304L-2.75387 52.1474L-2.73825 52.1646L-1.71325 53.2939L-1.69981 53.3087L-1.68653 53.3236L-0.66153 54.4758L-0.650307 54.4885L-0.639191 54.5012L0.385803 55.6731L0.394951 55.6836L0.40403 55.6941L1.42903 56.8827L1.43621 56.891L1.44335 56.8994L2.46835 58.1012L2.47366 58.1075L2.47895 58.1137L3.50395 59.3256L3.51096 59.3339L4.53595 60.5524L4.53943 60.5565L5.56442 61.7785L6.58595 62.9962L6.58942 63.0003L7.60395 64.2065L7.61095 64.2148L8.61835 65.4058L8.62896 65.4183L9.62904 66.591L9.64335 66.6077L10.6358 67.7586L10.654 67.7795L11.6385 68.9052L11.6608 68.9305L12.6367 70.0277L12.6635 70.0574L13.6463 71.14L14.6374 72.2067L15.6229 73.2395L16.6028 74.2358L17.5766 75.1929L18.5433 76.1074L19.502 76.9768L20.4528 77.7993L21.3938 78.5717L22.3251 79.2929L23.245 79.9607L24.1528 80.5739L25.0476 81.1314L25.9283 81.6325L26.7946 82.0773L27.6459 82.4658L28.482 82.7986L29.3038 83.0769L30.1118 83.3019L30.9079 83.4749L31.6943 83.5973L32.4739 83.6702L33.2499 83.6944L34.0259 83.6702L34.8055 83.5973L35.5919 83.4749L36.388 83.3019L37.1961 83.0769L38.0177 82.7986L38.8539 82.4658L39.7051 82.0773L40.5715 81.6325L41.4523 81.1313L42.3471 80.5738L43.2548 79.9607L44.1745 79.293L45.1057 78.5719L46.0469 77.7992L46.9977 76.9768L47.9568 76.1071L48.9235 75.1925L49.8969 74.2359L50.8769 73.2395L51.8624 72.2067L52.8541 71.1393L53.8363 70.0574L53.863 70.0277L54.839 68.9305L54.8613 68.9052L55.8457 67.7795L55.864 67.7586L56.8564 66.6077L56.8707 66.591L57.8708 65.4183L57.8814 65.4058L58.8888 64.2148L58.8958 64.2065L59.9103 63.0003L59.9138 62.9962L60.9353 61.7785L61.9603 60.5566L61.9638 60.5524L62.9888 59.3339L62.9958 59.3256L64.0208 58.1137L64.0261 58.1075L64.0314 58.1012L65.0564 56.8994L65.0635 56.891L65.0707 56.8827L66.0957 55.6941L66.1048 55.6836L66.114 55.6731L67.139 54.5012L67.1501 54.4885L67.1613 54.4758L68.1863 53.3236L68.1996 53.3087L68.213 53.2939L69.238 52.1646L69.2536 52.1474L69.2694 52.1304L70.2944 51.0272L70.3126 51.0076L70.331 50.9884L71.356 49.9142L71.3768 49.8923L71.398 49.8708L72.423 48.8286L72.4469 48.8043L72.4711 48.7805L73.4961 47.7731L73.5232 47.7465L73.5509 47.7203L74.5759 46.7506L74.6066 46.7215L74.6379 46.6931L75.6629 45.7637L75.6976 45.7322L75.733 45.7016L76.758 44.815L76.7971 44.7812L76.837 44.7484L77.862 43.907L77.9058 43.8711L77.9506 43.8363L78.9756 43.0425L79.0247 43.0045L79.075 42.968L80.1 42.2239L80.1548 42.1841L80.211 42.1462L81.236 41.4538L81.297 41.4126L81.3596 41.3736L82.3846 40.735L82.4523 40.6928L82.5217 40.6533L83.5467 40.0701L83.6215 40.0275L83.698 39.9882L84.723 39.462L84.8052 39.4198L84.8892 39.3814L85.9142 38.9137L86.0039 38.8727L86.0955 38.8363L87.1205 38.4283L87.2177 38.3896L87.3167 38.356L88.3417 38.0089L88.446 37.9736L88.5521 37.944L89.5771 37.6587L89.688 37.6278L89.8004 37.6034L90.8254 37.3806L90.9419 37.3553L91.0597 37.337L92.0847 37.1774L92.2055 37.1586L92.3273 37.1472L93.3523 37.0513L93.4759 37.0398L93.6001 37.0359L94.6251 37.0039L94.7499 37L94.8747 37.0039L95.8997 37.0359L96.0238 37.0398L96.1475 37.0513L97.1725 37.1472L97.2943 37.1586L97.4151 37.1774L98.4401 37.337L98.5579 37.3553L98.6743 37.3806L99.6993 37.6034L99.8118 37.6278L99.9226 37.6587L100.948 37.944L101.054 37.9736L101.158 38.0089L102.183 38.356L102.282 38.3896L102.379 38.4283L103.404 38.8363L103.496 38.8727L103.586 38.9137L104.611 39.3814L104.695 39.4198L104.777 39.462L105.802 39.9882L105.878 40.0275L105.953 40.0701L106.978 40.6533L107.047 40.6928L107.115 40.735L108.14 41.3736L108.203 41.4126L108.264 41.4538L109.289 42.1462L109.345 42.1841L109.4 42.2239L110.425 42.968L110.475 43.0045L110.524 43.0425L111.549 43.8363L111.594 43.8711L111.638 43.907L112.663 44.7484L112.703 44.7812L112.742 44.815L113.767 45.7016L113.802 45.7322L113.837 45.7637L114.862 46.6931L114.893 46.7215L114.924 46.7506L115.949 47.7203L115.977 47.7465L116.004 47.7731L117.029 48.7805L117.053 48.8043L117.077 48.8286L118.102 49.8708L118.123 49.8923L118.144 49.9142L119.169 50.9884L119.187 51.0076L119.205 51.0272L120.23 52.1304L120.246 52.1474L120.262 52.1646L121.287 53.2939L121.3 53.3087L121.313 53.3236L122.338 54.4758L122.35 54.4885L122.361 54.5012L123.386 55.6731L123.395 55.6836L123.404 55.6941L124.429 56.8827L124.436 56.891L124.443 56.8994L125.468 58.1012L125.474 58.1075L125.479 58.1137L126.504 59.3256L126.511 59.3339L127.536 60.5524L127.539 60.5565L128.564 61.7785L129.586 62.9962L129.589 63.0003L130.604 64.2065L130.611 64.2148L131.618 65.4058L131.629 65.4183L132.629 66.591L132.643 66.6077L133.636 67.7586L133.654 67.7795L134.638 68.9052L134.661 68.9305L135.637 70.0277L135.663 70.0574L136.63 71.1227L136.662 71.157L137.619 72.1872L137.655 72.226L138.602 73.218L138.644 73.2614L139.603 74.2363L140.576 75.1921L141.544 76.1077L142.502 76.9771L143.453 77.7992L144.394 78.5719L145.325 79.293L146 79.7829V89.1219L145.198 88.7101L145.121 88.6708L145.047 88.6283L144.022 88.045L143.952 88.0056L143.885 87.9634L142.86 87.3247L142.797 87.2857L142.736 87.2445L141.711 86.5522L141.655 86.5143L141.6 86.4744L140.575 85.7303L140.525 85.6939L140.476 85.6558L139.451 84.862L139.406 84.8273L139.362 84.7913L138.337 83.9499L138.297 83.9171L138.258 83.8834L137.233 82.9967L137.198 82.9661L137.163 82.9347L136.138 82.0052L136.107 81.9768L136.076 81.9477L135.051 80.978L135.023 80.9519L134.996 80.9252L133.971 79.9179L133.947 79.894L133.923 79.8698L132.898 78.8276L132.877 78.806L132.856 78.7842L131.831 77.71L131.813 77.6907L131.794 77.6712L130.769 76.5679L130.754 76.5509L130.738 76.5337L129.713 75.4044L129.7 75.3896L129.686 75.3747L128.661 74.2225L128.65 74.2099L128.639 74.1972L127.614 73.0252L127.605 73.0147L127.596 73.0042L126.571 71.8157L126.564 71.8073L126.556 71.799L125.531 70.5971L125.526 70.5909L125.521 70.5846L124.496 69.3728L124.489 69.3645L123.464 68.1459L123.46 68.1418L122.435 66.9199L121.414 65.7021L121.41 65.698L120.396 64.4919L120.389 64.4836L119.381 63.2925L119.371 63.28L118.371 62.1073L118.356 62.0906L117.364 60.9398L117.346 60.9188L116.361 59.7931L116.339 59.7678L115.363 58.6706L115.336 58.6409L114.354 57.5591L113.363 56.4921L112.377 55.4589L111.397 54.4624L110.423 53.5055L109.457 52.5912L108.498 51.7215L107.547 50.8991L106.606 50.1265L105.675 49.4053L104.755 48.7376L103.847 48.1245L102.952 47.567L102.071 47.0658L101.205 46.6211L100.354 46.2326L99.5176 45.8997L98.696 45.6214L97.888 45.3965L97.0919 45.2235L96.3055 45.1011L95.5259 45.0281L94.7499 45.0039L93.9739 45.0281L93.1943 45.1011L92.4078 45.2235L91.6118 45.3965L90.8037 45.6214L89.9821 45.8997L89.1458 46.2326L88.2946 46.621L87.4283 47.0658L86.5474 47.567L85.6528 48.1244L84.745 48.7376L83.825 49.4055L82.894 50.1265L81.9525 50.8993L81.002 51.7215L80.0434 52.5908L79.0766 53.5055L78.1029 54.4624L77.1228 55.4589L76.137 56.4921L75.1463 57.5584L74.1635 58.6409L74.1367 58.6706L73.1608 59.7678L73.1385 59.7931L72.154 60.9188L72.1358 60.9398L71.1433 62.0906L71.129 62.1073L70.1289 63.28L70.1184 63.2925L69.111 64.4836L69.104 64.4919L68.0894 65.698L68.0859 65.7021L67.0644 66.9199L66.0394 68.1418L66.0359 68.1459L65.0109 69.3645L65.0039 69.3728L63.979 70.5846L63.9737 70.5909L63.9683 70.5971L62.9434 71.799L62.9362 71.8073L62.929 71.8157L61.904 73.0042L61.895 73.0147L61.8858 73.0252L60.8608 74.1972L60.8497 74.2099L60.8385 74.2225L59.8135 75.3747L59.8002 75.3896L59.7868 75.4044L58.7617 76.5337L58.7461 76.5509L58.7303 76.5679L57.7053 77.6712L57.6872 77.6907L57.6688 77.71L56.6438 78.7842L56.6229 78.806L56.6017 78.8276L55.5767 79.8698L55.5529 79.894L55.5286 79.9179L54.5036 80.9252L54.4765 80.9519L54.4489 80.978L53.4239 81.9477L53.3932 81.9768L53.3618 82.0052L52.3368 82.9347L52.3021 82.9661L52.2667 82.9967L51.2418 83.8834L51.2027 83.9171L51.1628 83.9499L50.1378 84.7913L50.094 84.8273L50.0491 84.862L49.0241 85.6558L48.975 85.6939L48.9248 85.7303L47.8998 86.4744L47.8449 86.5143L47.7888 86.5522L46.7638 87.2445L46.7027 87.2857L46.6402 87.3247L45.6152 87.9634L45.5475 88.0056L45.4781 88.045L44.4531 88.6283L44.3783 88.6708L44.3018 88.7101L43.2767 89.2364L43.1946 89.2785L43.1105 89.3169L42.0855 89.7847L41.9958 89.8256L41.9043 89.8621L40.8792 90.2701L40.7821 90.3087L40.683 90.3423L39.658 90.6895L39.5537 90.7248L39.4476 90.7543L38.4226 91.0397L38.3118 91.0705L38.1993 91.095L37.1743 91.3177L37.0579 91.343L36.9401 91.3613L35.9151 91.5209L35.7943 91.5397L35.6725 91.5511L34.6475 91.647L34.5238 91.6586L34.3997 91.6624L33.3747 91.6944L33.2499 91.6983L33.1251 91.6944L32.1001 91.6624L31.9759 91.6586L31.8523 91.647L30.8273 91.5511L30.7055 91.5397L30.5847 91.5209L29.5597 91.3613L29.4419 91.343L29.3254 91.3177L28.3005 91.095L28.188 91.0705L28.0771 91.0397L27.0521 90.7543L26.946 90.7248L26.8417 90.6895L25.8167 90.3423L25.7177 90.3087L25.6205 90.2701L24.5955 89.8621L24.5039 89.8256L24.4142 89.7847L23.3892 89.3169L23.3052 89.2785L23.223 89.2364L22.198 88.7101L22.1215 88.6708L22.0467 88.6283L21.0217 88.045L20.9523 88.0056L20.8846 87.9634L19.8596 87.3247L19.797 87.2857L19.736 87.2445L18.711 86.5522L18.6548 86.5143L18.6 86.4744L17.575 85.7303L17.5247 85.6939L17.4756 85.6558L16.4506 84.862L16.4058 84.8273L16.362 84.7913L15.337 83.9499L15.2971 83.9171L15.258 83.8834L14.233 82.9967L14.1976 82.9661L14.1629 82.9347L13.1379 82.0052L13.1066 81.9768L13.0759 81.9477L12.0509 80.978L12.0233 80.9519L11.9961 80.9252L10.9711 79.9179L10.9469 79.894L10.923 79.8698L9.89802 78.8276L9.87684 78.806L9.85596 78.7842L8.83097 77.71L8.81258 77.6907L8.79444 77.6712L7.76945 76.5679L7.75362 76.5509L7.73801 76.5337L6.71302 75.4044L6.69958 75.3896L6.68629 75.3747L5.6613 74.2225L5.65008 74.2099L5.63895 74.1972L4.61396 73.0252L4.60481 73.0147L4.59573 73.0042L3.57074 71.8157L3.56355 71.8073L3.55641 71.799L2.53141 70.5971L2.5261 70.5909L2.52081 70.5846L1.49581 69.3728L1.48882 69.3645L0.463821 68.1459L0.460342 68.1418L-0.564659 66.9199L-1.58618 65.7021L-1.58966 65.698L-2.60419 64.4919L-2.61118 64.4836L-3.61859 63.2925L-3.62918 63.28L-4.62926 62.1073L-4.64359 62.0906L-5.63604 60.9398L-5.65427 60.9188L-6.65012 59.7803L-7.65033 58.6559L-8.64619 57.5588L-9.63748 56.4918L-10.6233 55.4587L-11.6032 54.4624L-12.5768 53.5055L-13.5434 52.591L-14.5024 51.7214L-15.4529 50.8992L-16.3941 50.1266L-17.3254 49.4054L-18 48.9156Z" fill="#FF453A"/>
    </g>
  </g>
  <defs>
    <filter id="filter0_d_19_2" x="-22" y="37" width="172" height="62.6983" filterUnits="userSpaceOnUse" color-interpolation-filters="sRGB">
      <feFlood flood-opacity="0" result="BackgroundImageFix"/>
      <feColorMatrix in="SourceAlpha" type="matrix" values="0 0 0 0 0 0 0 0 0 0 0 0 0 0 0 0 0 0 127 0" result="hardAlpha"/>
      <feOffset dy="4"/>
      <feGaussianBlur stdDeviation="2"/>
      <feComposite in2="hardAlpha" operator="out"/>
      <feColorMatrix type="matrix" values="0 0 0 0 0 0 0 0 0 0 0 0 0 0 0 0 0 0 0.25 0"/>
      <feBlend mode="normal" in2="BackgroundImageFix" result="effect1_dropShadow_19_2"/>
      <feBlend mode="normal" in="SourceGraphic" in2="effect1_dropShadow_19_2" result="shape"/>
    </filter>
    <clipPath id="clip0_19_2">
      <rect width="128" height="128" rx="30" fill="white"/>
    </clipPath>
  </defs>
</svg>